<svg version="1.1" id="Layer_1" xmlns="http://www.w3.org/2000/svg" x="0" y="0" viewBox="0 0 200 70" xml:space="preserve"><style>.st0{fill-rule:evenodd;clip-rule:evenodd;fill:#50ba7b}.st1{fill:#686969}.st3{fill:none;stroke:#50ba7b;stroke-width:2.0724;stroke-linecap:square;stroke-miterlimit:10}</style><path class="st0" d="M61.84 21.04c-.93-.77-2.06-1.34-3.35-1.7-1.28-.35-2.71-.53-4.27-.53-.72 0-1.61.03-2.62.09-1.02.06-2.01.18-2.95.35l-.29.05v18.05l.29.06c.94.19 1.91.32 2.89.38.97.06 1.83.09 2.56.09 1.61 0 3.09-.2 4.4-.58 1.32-.39 2.45-.99 3.38-1.78.93-.79 1.65-1.8 2.15-3.01.5-1.19.75-2.61.75-4.2 0-1.66-.25-3.11-.75-4.3-.53-1.19-1.26-2.2-2.19-2.97zm-1.96 7.28c0 1.69-.46 3.03-1.36 3.97-.9.94-2.32 1.42-4.23 1.42-.35 0-.64 0-.88-.01-.11 0-.22-.01-.31-.01V23.01l.48-.03c.29-.01.57-.01.84-.01 1.91 0 3.31.45 4.17 1.34.85.89 1.29 2.24 1.29 4.01zM79.43 32.52c-.7 0-1.34.23-1.9.69-.58.47-.87 1.16-.87 2.05 0 .88.29 1.57.87 2.05.56.46 1.19.69 1.9.69.7 0 1.34-.23 1.9-.69.58-.47.87-1.16.87-2.05 0-.88-.29-1.57-.87-2.05-.56-.46-1.2-.69-1.9-.69zM97.79 31.65c-1.25-1.54-2.56-2.9-3.9-4.05 1.27-1.27 2.49-2.54 3.63-3.79 1.23-1.34 2.48-2.76 3.69-4.2l.49-.59h-5.72l-.11.12c-.89 1-1.86 2.09-2.96 3.32-.85.95-1.7 1.87-2.54 2.76v-6.2h-4.75v18.65h4.75v-7.2c.42.36.84.75 1.25 1.17.61.62 1.2 1.28 1.77 1.96.56.68 1.09 1.36 1.58 2.03.48.66.91 1.29 1.27 1.87l.1.17H102l-.34-.55a51.286 51.286 0 00-3.87-5.47zM114.25 24.89c-.48-.6-1.12-1.06-1.9-1.39-.77-.32-1.75-.48-2.89-.48-.4 0-.82.04-1.24.12-.21.04-.4.08-.57.12V16.8l-4.57.74v20.12h4.57V27.23c.16-.04.34-.08.53-.12.28-.06.58-.08.9-.08.74 0 1.22.2 1.47.61.28.46.43 1.28.43 2.45v7.58h4.57v-8.04c0-.95-.09-1.84-.28-2.62-.21-.82-.55-1.53-1.02-2.12zM126.07 33.88c-.15.02-.32.03-.5.05-.3.02-.58.04-.85.04-.77 0-1.27-.21-1.53-.65-.29-.49-.44-1.34-.44-2.51v-7.47h-4.57v7.94c0 .96.1 1.85.3 2.65.2.82.55 1.55 1.02 2.14.49.61 1.15 1.08 1.97 1.41.81.33 1.82.49 3.02.49 1.15 0 2.27-.08 3.32-.25 1.04-.17 1.91-.35 2.58-.54l.26-.07V23.34h-4.57v10.54zM145.31 25.12c-.53-.66-1.2-1.18-1.99-1.54-.78-.36-1.7-.54-2.71-.54-.56 0-1.09.05-1.58.16-.31.07-.61.16-.91.26V16.8l-4.57.74v19.59l.26.08c.35.11.77.21 1.22.3.45.1.93.18 1.43.25.5.07 1.01.13 1.52.17.52.04 1.02.07 1.49.07 1.16 0 2.21-.18 3.13-.53.92-.35 1.72-.87 2.35-1.52.64-.65 1.13-1.45 1.46-2.38.33-.92.5-1.95.5-3.07 0-1.1-.14-2.11-.4-3.01-.27-.92-.67-1.71-1.2-2.37zm-3.04 5.27c0 1.11-.25 2-.73 2.66-.47.63-1.15.94-2.09.94-.33 0-.64-.01-.93-.04-.15-.01-.28-.03-.4-.04v-6.5c.19-.09.41-.18.68-.25.36-.1.72-.14 1.08-.14 1.02.01 2.39.36 2.39 3.37zM156.94 23.6c-.17.67-.37 1.4-.58 2.18-.21.77-.44 1.57-.67 2.37-.23.79-.47 1.58-.71 2.33-.13.39-.25.77-.37 1.14-.14-.36-.27-.75-.42-1.15-.27-.77-.54-1.55-.79-2.33-.26-.81-.51-1.61-.74-2.37-.23-.78-.44-1.51-.61-2.17l-.07-.27h-4.84l.13.46c.78 2.67 1.62 5.12 2.5 7.27.86 2.09 1.72 4 2.58 5.69-.23.54-.5.96-.8 1.27-.3.3-.74.45-1.34.45-.32 0-.64-.02-.93-.07-.29-.05-.63-.14-1-.27l-.38-.13-.82 3.76.28.12c.35.15.79.28 1.32.39.53.12 1.12.18 1.75.18.76 0 1.43-.09 2.01-.26.59-.18 1.12-.46 1.59-.84.46-.37.88-.85 1.26-1.42.37-.55.74-1.24 1.12-2.03 1-2.16 1.94-4.41 2.79-6.7.85-2.29 1.67-4.78 2.45-7.4l.14-.46h-4.74l-.11.26zM174.73 25.12c-.53-.66-1.2-1.18-1.99-1.54-.78-.36-1.7-.54-2.71-.54-.56 0-1.09.05-1.58.16-.31.07-.61.16-.91.26V16.8l-4.57.74v19.59l.25.08c.35.11.76.21 1.22.3.45.1.93.18 1.43.25.5.07 1.01.13 1.52.17.52.04 1.02.07 1.49.07 1.16 0 2.21-.18 3.13-.53.92-.35 1.72-.87 2.35-1.52.64-.65 1.13-1.45 1.46-2.38.33-.92.5-1.95.5-3.07 0-1.1-.14-2.11-.4-3.01-.26-.92-.67-1.71-1.19-2.37zm-3.05 5.27c0 1.11-.25 2-.73 2.66-.47.63-1.15.94-2.09.94-.33 0-.64-.01-.93-.04-.15-.01-.28-.03-.4-.04v-6.5a4.026 4.026 0 011.77-.39c1.02.01 2.38.36 2.38 3.37zM184.82 22.97c-.87 0-1.73.16-2.55.49-.83.33-1.57.82-2.2 1.45-.63.63-1.15 1.44-1.54 2.38-.39.94-.58 2.06-.58 3.31 0 1.03.15 2.01.45 2.91.3.91.77 1.71 1.4 2.37.63.66 1.43 1.19 2.38 1.57.94.38 2.06.57 3.33.57.49 0 .99-.03 1.49-.08.49-.05.95-.12 1.39-.2.43-.08.83-.17 1.19-.28.37-.11.66-.22.89-.33l.24-.12-.64-3.85-.42.19c-.4.18-.94.33-1.59.45-.66.12-1.33.19-2.02.19-1.02 0-1.84-.21-2.43-.63-.46-.33-.75-.73-.89-1.24h8.65l.03-.33c.02-.21.03-.45.05-.72.02-.28.03-.53.03-.76 0-2.38-.6-4.21-1.78-5.46-1.23-1.24-2.85-1.88-4.88-1.88zm2.14 5.8h-4.26c.04-.17.09-.33.15-.49.1-.27.24-.52.41-.73.17-.2.39-.37.66-.49.26-.12.59-.19.96-.19.39 0 .71.07.96.19.26.13.47.3.64.5.17.21.29.44.37.71.04.17.08.33.11.5zM70.54 26.3h-.12l-.18-2.63h-3.9c.06 1.36.12 2.85.12 4.73v9.28H71v-6.7c0-2.58 1.56-3.8 3.62-3.8.46 0 .83.03 1.17.08v-3.83c-.31-.05-.58-.08-1.01-.08-1.61-.01-3.45.99-4.24 2.95z"/><g><path class="st1" d="M52.55 50.91V47.9h-2.72v3.01h-.85v-6.23h.85v2.5h2.72v-2.5h.85v6.23h-.85zM58.88 48.71H55.6c0 .53.15.94.44 1.23.26.25.59.38 1 .38.46 0 .85-.13 1.16-.4l.34.58c-.13.13-.32.23-.57.32-.34.12-.7.18-1.1.18-.57 0-1.06-.19-1.46-.58-.44-.43-.67-1-.67-1.73 0-.75.23-1.35.68-1.81.41-.41.89-.61 1.45-.61.65 0 1.16.18 1.53.55.36.35.54.82.54 1.4.01.18-.02.34-.06.49zm-1.96-1.76c-.36 0-.66.12-.91.35-.23.22-.36.5-.4.82h2.52c0-.33-.1-.6-.31-.82-.21-.23-.51-.35-.9-.35zM60.29 49.62v-5.13h.81v5c0 .24.07.44.21.58.14.14.32.21.55.21V51c-1.04 0-1.57-.46-1.57-1.38zM64.04 50.66v2.04h-.81v-6.34h.81v.37c.31-.31.68-.46 1.11-.46.65 0 1.15.2 1.51.6.36.4.54.99.54 1.77 0 .69-.18 1.26-.54 1.69-.37.45-.89.67-1.58.67-.19 0-.4-.03-.62-.1-.21-.07-.36-.15-.42-.24zm0-3.32v2.65c.05.08.16.15.32.22s.32.1.48.1c1 0 1.51-.57 1.51-1.7 0-.58-.12-1-.36-1.26-.24-.27-.62-.4-1.14-.4-.11 0-.25.04-.42.12-.16.08-.29.17-.39.27zM68.91 50.91v-3.87h-.63v-.68h1.43v4.55h-.8zm.44-6.27c.14 0 .26.05.35.15.1.1.15.21.15.35 0 .14-.05.26-.15.35s-.22.15-.35.15a.47.47 0 01-.35-.15c-.1-.1-.15-.22-.15-.35 0-.14.05-.26.14-.35.11-.1.22-.15.36-.15zM74.24 50.91v-2.65c0-.49-.07-.82-.22-1.02s-.39-.29-.73-.29c-.18 0-.38.05-.58.17-.2.11-.36.25-.46.41v3.38h-.81v-4.55h.55l.26.59c.27-.45.7-.67 1.31-.67 1 0 1.5.61 1.5 1.82v2.82h-.82zM76.47 52.16l.44-.65c.47.31.9.47 1.3.47.37 0 .65-.06.87-.19.21-.13.32-.28.32-.47 0-.37-.27-.55-.8-.55-.09 0-.26.02-.49.07-.24.04-.42.07-.56.07-.65 0-.97-.24-.97-.73 0-.15.08-.29.23-.41.15-.12.34-.21.56-.26-.64-.3-.96-.82-.96-1.56 0-.48.17-.87.5-1.19s.74-.48 1.23-.48c.45 0 .8.09 1.05.28l.4-.48.53.5-.48.37c.21.27.31.62.31 1.05 0 .46-.14.84-.43 1.16-.29.31-.66.49-1.13.54l-.67.07c-.08.01-.19.04-.32.09-.13.05-.2.12-.2.21 0 .12.14.17.42.17.12 0 .31-.02.57-.07s.45-.07.57-.07c.45 0 .8.11 1.05.32s.38.51.38.89c0 .42-.19.76-.56 1.02s-.85.39-1.43.39c-.29 0-.61-.05-.93-.16-.34-.12-.61-.25-.8-.4zm1.71-5.24c-.28 0-.51.1-.69.3-.18.2-.27.44-.27.72 0 .32.09.58.26.79.17.21.4.31.7.31.29 0 .51-.1.67-.3.16-.2.24-.47.24-.8 0-.28-.09-.52-.26-.72s-.39-.3-.65-.3zM88.02 50.91l-1.66-2.67c-.19 0-.49-.01-.9-.04v2.72h-.86v-6.23c.03 0 .25-.01.66-.03.41-.02.71-.03.9-.03 1.5 0 2.24.59 2.24 1.79 0 .39-.12.74-.36 1.06s-.53.51-.86.58l1.81 2.87h-.97zm-2.57-5.46v2.02c.2.03.4.04.6.04.51 0 .88-.08 1.11-.25s.35-.46.35-.88c0-.35-.13-.6-.37-.75-.25-.15-.64-.23-1.18-.23-.09.01-.26.02-.51.05zM89.35 48.63c0-.7.19-1.27.57-1.7.38-.43.88-.65 1.49-.65.65 0 1.16.21 1.52.62s.54.99.54 1.73c0 .73-.18 1.31-.55 1.74-.37.42-.87.64-1.5.64-.65 0-1.16-.21-1.52-.64-.37-.44-.55-1.02-.55-1.74zm.85 0c0 1.14.4 1.71 1.21 1.71.38 0 .67-.15.89-.46.21-.31.32-.72.32-1.25 0-1.13-.4-1.69-1.21-1.69-.37 0-.66.15-.88.45-.22.29-.33.71-.33 1.24zM97.56 50.91v-2.86c0-.34-.08-.61-.25-.8-.17-.2-.4-.29-.71-.29-.2 0-.39.06-.59.17-.2.12-.35.25-.45.4v3.38h-.81v-6.42h.81v2.37c.11-.17.28-.31.52-.42.24-.11.49-.17.74-.17.48 0 .86.16 1.13.48s.41.75.41 1.3v2.86h-.8zM100.34 50.91v-3.87h-.63v-.68h1.43v4.55h-.8zm.44-6.27c.14 0 .26.05.35.15.1.1.15.21.15.35 0 .14-.05.26-.15.35a.485.485 0 01-.7 0c-.1-.1-.15-.22-.15-.35a.491.491 0 01.5-.5zM105.67 50.91v-2.65c0-.49-.07-.82-.22-1.02-.15-.19-.39-.29-.73-.29-.18 0-.38.05-.58.17-.2.11-.36.25-.46.41v3.38h-.81v-4.55h.55l.25.59c.27-.45.7-.67 1.3-.67 1 0 1.5.61 1.5 1.82v2.82h-.8zM107.89 52.16l.44-.65c.47.31.9.47 1.3.47.37 0 .65-.06.86-.19.21-.13.32-.28.32-.47 0-.37-.27-.55-.8-.55-.09 0-.25.02-.49.07-.24.04-.42.07-.56.07-.65 0-.97-.24-.97-.73 0-.15.08-.29.23-.41.15-.12.34-.21.56-.26-.64-.3-.96-.82-.96-1.56 0-.48.17-.87.5-1.19.33-.32.74-.48 1.23-.48.45 0 .8.09 1.05.28l.4-.48.53.5-.49.37c.21.27.31.62.31 1.05 0 .46-.14.84-.43 1.16-.29.31-.66.49-1.13.54l-.67.07c-.08.01-.19.04-.32.09-.13.05-.2.12-.2.21 0 .12.14.17.42.17.12 0 .31-.02.57-.07s.45-.07.57-.07c.45 0 .8.11 1.05.32s.38.51.38.89c0 .42-.19.76-.56 1.02-.38.26-.85.39-1.43.39-.29 0-.61-.05-.93-.16a3.14 3.14 0 01-.78-.4zm1.71-5.24c-.28 0-.51.1-.69.3-.18.2-.27.44-.27.72 0 .32.09.58.26.79.17.21.4.31.69.31.29 0 .51-.1.67-.3.16-.2.24-.47.24-.8 0-.28-.09-.52-.26-.72-.16-.2-.37-.3-.64-.3zM114.6 51.69c-.1.29-.33.53-.66.72-.34.19-.71.29-1.12.29v-.72c.34 0 .63-.08.87-.24s.36-.35.36-.58c0-.25-.04-.5-.13-.74s-.2-.54-.34-.9l-1.23-3.17h.83l1.34 3.52 1.2-3.52h.83l-1.95 5.34zM120.17 50.39c-.32.41-.82.61-1.48.61-.36 0-.67-.13-.93-.39s-.39-.58-.39-.97c0-.46.2-.85.61-1.17.4-.32.92-.48 1.54-.48.17 0 .36.04.58.11 0-.74-.33-1.11-.99-1.11-.5 0-.89.14-1.17.41l-.34-.68c.15-.13.37-.23.64-.32s.53-.13.78-.13c.66 0 1.14.15 1.44.45.3.3.45.78.45 1.43v1.63c0 .4.12.67.36.8v.4c-.33 0-.57-.05-.74-.14s-.29-.24-.36-.45zm-.08-1.71c-.25-.06-.43-.08-.54-.08-.41 0-.74.1-1 .31s-.39.46-.39.74c0 .47.28.71.84.71.41 0 .77-.19 1.08-.58v-1.1zM127.84 45.45v5.46h-.85v-5.46h-1.98v-.77h4.9v.77h-2.07zM129.61 48.63c0-.7.19-1.27.57-1.7.38-.43.88-.65 1.49-.65.65 0 1.16.21 1.52.62.36.42.54.99.54 1.73 0 .73-.18 1.31-.55 1.74-.37.42-.87.64-1.51.64-.65 0-1.15-.21-1.52-.64-.36-.44-.54-1.02-.54-1.74zm.85 0c0 1.14.4 1.71 1.21 1.71.38 0 .67-.15.89-.46.21-.31.32-.72.32-1.25 0-1.13-.4-1.69-1.21-1.69-.37 0-.66.15-.88.45-.22.29-.33.71-.33 1.24zM139.92 50.91h-1.78v-6.23c.76-.04 1.3-.06 1.64-.06.62 0 1.09.13 1.43.4.34.26.51.64.51 1.14 0 .29-.11.55-.32.79-.21.24-.45.39-.71.45.49.12.85.32 1.08.59.23.28.34.65.34 1.12 0 .55-.2.98-.6 1.31-.42.33-.95.49-1.59.49zm-.93-5.55v1.79c.18.02.4.03.66.03.8 0 1.21-.33 1.21-.98 0-.58-.37-.86-1.11-.86-.28-.01-.54 0-.76.02zm0 2.45v2.38c.29.03.52.04.67.04.53 0 .92-.1 1.17-.3.25-.2.37-.52.37-.96 0-.41-.12-.7-.35-.9-.23-.19-.62-.29-1.17-.29l-.69.03zM147.27 48.71h-3.28c0 .53.15.94.44 1.23.26.25.59.38 1 .38.46 0 .85-.13 1.16-.4l.34.58c-.12.13-.32.23-.57.32-.32.12-.68.18-1.08.18-.57 0-1.06-.19-1.46-.58-.44-.43-.67-1-.67-1.73 0-.75.23-1.35.68-1.81.41-.41.89-.61 1.45-.61.65 0 1.16.18 1.53.55.36.35.54.82.54 1.4-.01.18-.03.34-.08.49zm-1.96-1.76c-.36 0-.66.12-.91.35-.23.22-.36.5-.4.82h2.52c0-.33-.1-.6-.31-.82-.21-.23-.51-.35-.9-.35zM155.32 50.91V47.9h-2.72v3.01h-.85v-6.23h.85v2.5h2.72v-2.5h.85v6.23h-.85zM161.65 48.71h-3.28c0 .53.15.94.44 1.23.26.25.59.38 1 .38.46 0 .85-.13 1.16-.4l.34.58c-.12.13-.32.23-.57.32-.32.12-.68.18-1.08.18-.57 0-1.06-.19-1.46-.58-.44-.43-.67-1-.67-1.73 0-.75.23-1.35.68-1.81.41-.41.89-.61 1.45-.61.65 0 1.16.18 1.53.55.36.35.54.82.54 1.4-.02.18-.04.34-.08.49zm-1.96-1.76c-.36 0-.66.12-.91.35-.23.22-.36.5-.4.82h2.52c0-.33-.1-.6-.31-.82-.21-.23-.52-.35-.9-.35zM165.57 50.39c-.32.41-.82.61-1.48.61-.36 0-.67-.13-.93-.39s-.39-.58-.39-.97c0-.46.2-.85.61-1.17.4-.32.92-.48 1.54-.48.17 0 .36.04.58.11 0-.74-.33-1.11-.99-1.11-.5 0-.89.14-1.17.41l-.34-.67c.15-.13.37-.23.64-.32s.53-.13.78-.13c.66 0 1.14.15 1.44.45.3.3.45.78.45 1.43v1.63c0 .4.12.67.36.8v.4c-.33 0-.57-.05-.74-.14s-.29-.25-.36-.46zm-.08-1.71c-.25-.06-.43-.08-.54-.08-.41 0-.74.1-1 .31s-.39.46-.39.74c0 .47.28.71.84.71.41 0 .77-.19 1.08-.58v-1.1zM168.07 49.62v-5.13h.81v5c0 .24.07.44.21.58.14.14.32.21.55.21V51c-1.04 0-1.57-.46-1.57-1.38zM171.3 47h-.53v-.64h.53v-.95l.81-.31v1.26h1.25V47h-1.25v2.26c0 .38.06.66.19.82.13.16.34.24.62.24.21 0 .42-.05.64-.16l.12.71c-.33.09-.7.13-1.1.13-.36 0-.66-.13-.91-.4s-.37-.61-.37-1.01V47zM177.71 50.91v-2.86c0-.34-.08-.61-.25-.8-.17-.2-.4-.29-.71-.29-.2 0-.39.06-.59.17-.2.12-.35.25-.45.4v3.38h-.81v-6.42h.81v2.37c.11-.17.28-.31.52-.42.24-.11.49-.17.74-.17.48 0 .86.16 1.13.48s.41.75.41 1.3v2.86h-.8zM180.48 50.91v-3.87h-.63v-.68h1.43v4.55h-.8zm.44-6.27c.14 0 .26.05.36.15.1.1.15.21.15.35 0 .14-.05.26-.15.35-.1.1-.22.15-.36.15-.14 0-.25-.05-.35-.15s-.15-.22-.15-.35c0-.14.05-.26.14-.35.11-.1.23-.15.36-.15zM186.85 48.71h-3.28c0 .53.15.94.44 1.23.26.25.59.38 1 .38.46 0 .85-.13 1.16-.4l.34.58c-.12.13-.32.23-.57.32-.32.12-.68.18-1.08.18-.57 0-1.06-.19-1.46-.58-.44-.43-.67-1-.67-1.73 0-.75.23-1.35.68-1.81.41-.41.89-.61 1.45-.61.65 0 1.16.18 1.53.55.36.35.54.82.54 1.4-.02.18-.04.34-.08.49zm-1.96-1.76c-.36 0-.66.12-.91.35-.23.22-.36.5-.4.82h2.52c0-.33-.1-.6-.31-.82-.21-.23-.52-.35-.9-.35zM190.67 47.14a.938.938 0 00-.53-.18c-.29 0-.54.13-.75.4s-.32.58-.32.95v2.61h-.81v-4.55h.81v.73c.29-.54.73-.81 1.31-.81.14 0 .35.03.63.08l-.34.77z"/></g><g><path d="M24.51 23.64c-6.25 0-11.32 5.07-11.32 11.32s5.07 11.32 11.32 11.32c2.18 0 4.22-.62 5.95-1.69-.57-1.77-1.74-3.18-1.74-3.18-12.28-1.64-10.9-12.74-10.9-12.74 13.52.92 13.43 11.3 13.43 11.3-2.78-7.46-9.78-8.25-9.78-8.25 7.39 5.13 9.17 9.79 9.46 12.56 2.97-2.04 4.91-5.46 4.91-9.33-.01-6.24-5.08-11.31-11.33-11.31z" fill="#50ba7b"/><path class="st3" d="M36.38 45.61c-5.88 6.56-15.96 7.1-22.52 1.22-6.56-5.88-7.1-15.96-1.22-22.52s15.96-7.1 22.52-1.22"/><path class="st3" d="M38.39 27.11c4.34 7.66 1.64 17.4-6.02 21.73-7.66 4.34-17.4 1.64-21.73-6.02S9 25.42 16.66 21.09"/></g></svg>